<svg xmlns="http://www.w3.org/2000/svg" width="47.201" height="41.256" viewBox="0 0 47.201 41.256">
  <g id="Group_690" transform="translate(-670.597 -263.477)">
    <g id="Path_229" fill="none" stroke-miterlimit="10">
      <path d="M672.173,289.463l13.656-21.4a9.929,9.929,0,0,1,16.739,0l13.656,21.4a9.928,9.928,0,0,1-8.369,15.27H680.542A9.928,9.928,0,0,1,672.173,289.463Z" stroke="none"/>
      <path d="M 707.85400390625 299.7323303222656 C 710.4886474609375 299.7323303222656 711.7542114257812 297.9421691894531 712.1760864257812 297.1725463867188 C 712.5978393554688 296.4029541015625 713.4259033203125 294.373291015625 712.0086059570312 292.1525573730469 L 698.3527221679688 270.7536315917969 C 697.42919921875 269.3064880371094 695.9148559570312 268.4765014648438 694.1981201171875 268.4765014648438 C 692.4813232421875 268.4765014648438 690.9669799804688 269.3065185546875 690.04345703125 270.7536010742188 L 676.3873901367188 292.1527099609375 C 674.9701538085938 294.3733215332031 675.7982177734375 296.403076171875 676.2200317382812 297.1726379394531 C 676.6419067382812 297.9422607421875 677.9074096679688 299.7323303222656 680.541748046875 299.7323303222656 L 707.85400390625 299.7323303222656 M 707.85400390625 304.7323303222656 L 680.541748046875 304.7323303222656 C 672.7018432617188 304.7323303222656 667.9547119140625 296.0717468261719 672.172607421875 289.4627990722656 L 685.8285522460938 268.0638427734375 C 689.7319946289062 261.9474487304688 698.6642456054688 261.9473266601562 702.5675659179688 268.0638427734375 L 716.2234497070312 289.4627990722656 C 720.44140625 296.0717468261719 715.6942749023438 304.7323303222656 707.85400390625 304.7323303222656 Z" stroke="none" fill="#fff"/>
    </g>
    <line id="Line_3" y2="7.028" transform="translate(694.198 278.003)" fill="#fff" stroke="#fff" stroke-linecap="round" stroke-miterlimit="10" stroke-width="5"/>
    <line id="Line_4" y2="0.062" transform="translate(694.198 293.593)" fill="#fff" stroke="#fff" stroke-linecap="round" stroke-miterlimit="10" stroke-width="5"/>
  </g>
</svg>
